<?xml version="1.0" encoding="UTF-8"?>
<!DOCTYPE svg PUBLIC "-//W3C//DTD SVG 1.1//EN" "http://www.w3.org/Graphics/SVG/1.1/DTD/svg11.dtd">
<!-- Creator: CorelDRAW X8 -->
<svg xmlns="http://www.w3.org/2000/svg" xml:space="preserve" width="134.586mm" height="128.212mm" version="1.1" style="shape-rendering:geometricPrecision; text-rendering:geometricPrecision; image-rendering:optimizeQuality; fill-rule:evenodd; clip-rule:evenodd"
viewBox="0 0 13020 12404"
 xmlns:xlink="http://www.w3.org/1999/xlink">
 <defs>
  <style type="text/css">
   <![CDATA[
    .fil0 {fill:black}
   ]]>
  </style>
 </defs>
 <g id="圖層_x0020_1">
  <metadata id="CorelCorpID_0Corel-Layer"/>
  <path class="fil0" d="M10496 9628c619,-522 1188,-1090 1660,-1749 632,-888 942,-1869 848,-2964 -47,-565 -201,-1099 -455,-1607 -473,-940 -1188,-1659 -2075,-2210 -1211,-752 -2541,-1088 -3957,-1098 -686,0 -1363,84 -2029,263 -1118,301 -2124,816 -2960,1630 -838,808 -1374,1772 -1503,2943 -52,481 -21,958 88,1429 196,859 617,1598 1219,2230 1038,1090 2335,1689 3799,1958 184,33 371,64 550,118 292,94 381,226 371,528 -5,186 -37,375 -62,560 -21,174 -59,342 -67,513 -7,161 82,238 242,231 40,-1 79,-6 117,-13 230,-51 436,-166 638,-282 1264,-721 2457,-1548 3576,-2480zm-2386 -5868l0 0zm299 2885c0,229 -159,378 -379,361 -110,-11 -186,-74 -250,-160 -259,-354 -519,-708 -778,-1062 -153,-209 -308,-420 -461,-630 -16,-23 -36,-44 -68,-86 -4,55 -5,84 -5,118l0 1458c-5,172 -75,288 -212,343 -220,84 -455,-71 -459,-307 -3,-182 0,-362 0,-542l0 -2033c0,-228 193,-387 413,-337 95,20 161,81 216,159 412,561 825,1123 1239,1684 16,22 33,45 70,63l0 -84c0,-480 0,-963 2,-1444 0,-55 7,-114 23,-168 49,-147 201,-238 350,-218 172,28 287,152 299,329l0 37 0 2519zm1447 364l-634 0c-207,-3 -344,-144 -344,-349l0 -2543c0,-218 135,-359 351,-359 418,-5 837,-5 1257,-4 179,4 308,110 344,272 31,142 -43,302 -182,364 -56,24 -123,37 -186,39 -281,3 -560,0 -840,0 -66,0 -82,19 -79,80 3,151 3,307 0,459 -3,63 18,84 79,82 294,-4 590,-4 886,-3 162,3 306,130 327,292 19,162 -76,314 -234,360 -43,14 -93,14 -139,14 -275,3 -551,3 -825,0 -72,0 -97,16 -95,92 7,151 3,302 0,454 -2,62 17,84 83,84 295,-3 587,0 880,0 166,0 307,124 330,285 24,165 -82,326 -245,369 -38,9 -77,12 -116,12l-618 0zm-5557 -337c1,187 -144,334 -341,337l-1282 0c-198,-3 -335,-138 -335,-339l0 -2576c0,-190 145,-340 332,-340 183,4 332,153 332,340 2,364 2,725 2,1087 0,360 0,720 -5,1079 0,67 21,83 85,83 289,-3 575,0 865,0 194,0 344,143 347,329zm994 -2557c5,422 2,843 2,1264 0,414 3,828 -2,1242 0,51 -3,105 -16,155 -44,153 -185,244 -357,230 -141,-11 -265,-130 -286,-276 -6,-38 -11,-85 -11,-127 0,-812 0,-1631 3,-2445 0,-63 6,-130 26,-188 57,-153 209,-233 371,-206 164,32 270,168 270,351z"/>
 </g>
</svg>
